PathFileType	4	(X/Y/Z)	Patient4_TMGait_0pt6_01_left_34.trc.trc
DataRate	CameraRate	NumFrames	NumMarkers	Units	OrigDataRate	OrigDataStartFrame	OrigNumFrames
85.889570552147	85.889570552147	4	33	mm	85.889570552147	18	       141
Frame#	Time	Sacral			L.Shoulder			Chest			R.Shoulder			Neck			R.ASIS			L.ASIS			R.Thigh.Superior			R.Thigh.Lateral			R.Thigh.Inferior			R.Patella			L.Thigh.Superior			L.Thigh.Lateral			L.Thigh.Inferior			L.Patella			L.Shank.Superior			L.Shank.Lateral			L.Shank.Inferior			R.Shank.Superior			R.Shank.Lateral			R.Shank.Inferior			R.Heel			R.Midfoot.Superior			R.Midfoot.Lateral			R.Toe			L.Heel			L.Midfoot.Lateral			L.Midfoot.Superior			L.Toe			L.Elbow			L.Wrist			R.Elbow			R.Wrist			
		X1	Y1	Z1	X2	Y2	Z2	X3	Y3	Z3	X4	Y4	Z4	X5	Y5	Z5	X6	Y6	Z6	X7	Y7	Z7	X8	Y8	Z8	X9	Y9	Z9	X10	Y10	Z10	X11	Y11	Z11	X12	Y12	Z12	X13	Y13	Z13	X14	Y14	Z14	X15	Y15	Z15	X16	Y16	Z16	X17	Y17	Z17	X18	Y18	Z18	X19	Y19	Z19	X20	Y20	Z20	X21	Y21	Z21	X22	Y22	Z22	X23	Y23	Z23	X24	Y24	Z24	X25	Y25	Z25	X26	Y26	Z26	X27	Y27	Z27	X28	Y28	Z28	X29	Y29	Z29	X30	Y30	Z30	X31	Y31	Z31	X32	Y32	Z32	X33	Y33	Z33	

18	41.587928571429	752.548134234753	1010.647764039444	514.745351968663	910.976860072302	1432.906847302235	317.408912657192	1034.061447305833	1362.990623489221	463.261966384986	975.556673522001	1438.260153566938	644.901088636723	910.750407525847	1492.607963830563	470.777033311133	984.253995868231	937.991283418662	607.531279953059	947.695163582638	961.861192846326	336.137583696878	986.828208863992	726.055566119884	574.495476643464	888.907049038771	629.364881894234	638.396112145629	945.930160344992	567.695099312470	552.907226741045	929.617351381992	482.416432473432	555.791009171713	1022.563803702972	774.441683334837	367.936311311065	978.215479438923	651.349056904094	285.452896134999	1077.236786785779	590.448718623363	353.283057504825	1106.586749704269	530.216796766704	348.426704446575	1096.020277470970	459.805975875803	335.364753738801	1043.592528274731	324.343425303777	283.957631713509	1139.990504897009	234.378343449659	339.454501479914	894.056779093079	397.135569870786	561.662979602816	816.133456571868	298.883629973379	623.513737190944	843.621311335146	202.700461039663	555.220831646961	694.844264079758	44.501724304118	525.790294883285	867.246515609203	95.972669157059	558.831509512514	778.929565976483	37.080582255018	599.015128734080	987.302902506605	40.559787854567	585.514993767848	1075.712053381049	45.698821903299	378.198434288730	1149.747661234926	57.693280140847	299.052710587911	1211.107140327619	143.125241883229	318.805547154382	1347.690998077867	127.934321985457	295.794413111080	801.354358918651	1092.646171234375	216.332782606979	774.681790240459	835.362532260759	211.143640817495	1113.868069901233	1132.217297353325	762.615724658847	1312.049596649485	1255.108969857515	680.289823432387	
19	41.599571428571	752.717105236303	1009.899057844379	513.594887404086	910.549007117467	1432.239825115380	316.252275047201	1033.934769428244	1362.209310178012	461.830583310922	975.681583391521	1437.415105056275	643.530507283432	910.571329725194	1491.827892022471	469.583367605418	984.445007373772	937.210291853226	606.157016831497	947.709482787318	960.863572176573	334.638869061237	985.648651332554	724.995197675704	573.523387634397	887.085720476217	628.764321456558	637.603384898183	943.768699912897	566.601272222845	552.261605526062	926.766783949952	481.201517899801	555.178343627417	1022.811415814021	773.954777167974	366.520969903955	977.100047295213	649.533719543101	285.999837548088	1077.151587795910	589.516220367106	352.252558737134	1105.740566613559	528.378964581345	348.137526872431	1094.343331574096	457.233474715739	336.016795356386	1039.386080145421	322.442194491211	286.087603738800	1134.543802066965	231.466277387610	341.485457109344	890.364640476662	396.316038703374	561.227706507978	811.512826803340	298.911021261441	623.345122586881	837.862032630675	202.362488030814	555.078903986528	687.832446767332	44.772810813363	525.881666611880	860.314951867685	95.954778179070	558.892920006481	771.910299635632	37.147147286641	599.043274705185	980.281855485149	40.371179227543	585.562699290404	1067.391251350643	44.951515478205	381.941057626882	1140.678114040222	55.211254173492	301.932420049995	1203.988510652313	139.038682710622	320.930260965510	1339.739116865866	120.797254066751	296.470797591129	801.086935686695	1092.170412044277	214.817179861742	774.323972869229	834.863940207653	209.582192079061	1116.009435129715	1132.592905428034	760.985345530694	1310.238798469965	1259.984648204697	677.070451630918	
20	41.611214285714	753.046908566283	1009.015931807111	512.204674264555	910.088352572105	1431.474891234704	314.932656784805	1033.738511268156	1361.451421594497	460.297697539733	975.591953386251	1436.529981554491	642.064413509512	910.270893528770	1490.982007359331	468.239737175490	984.739570986718	936.406017728172	604.833131065340	948.108709329011	959.761235646605	333.151211744129	984.663103112717	723.887868640886	572.683929388198	885.391912432538	628.118085443310	636.801149635815	941.873845796178	565.435481293891	551.696478329108	924.146860641203	479.891851646915	554.591177196456	1023.711166750060	773.379122117417	365.032774327910	976.165205184570	647.503665322578	286.764790725881	1077.394638328053	588.309841953228	351.193866419408	1104.946589283652	525.999490969868	348.082485615830	1092.414656918728	454.065977353699	336.940397400397	1034.312164207965	320.351049252893	288.088362124739	1127.430779226965	227.742981342956	343.650171236155	886.871947867822	395.429698536337	560.794411307668	807.007351676465	298.943310425989	623.173340930093	832.179109617837	202.011782585825	554.945884791982	680.831781327822	45.101442631447	525.978598888225	853.400389644997	95.940060733743	558.957649247884	764.901756603609	37.245867738295	599.061412885086	973.263101565686	40.166772559102	585.620444740065	1056.028515077310	43.963610736179	385.087187128062	1128.992647399600	52.180976983375	304.580739928347	1194.713993070779	133.805666625392	323.410303040000	1329.593655039689	111.591012965018	298.053633190934	801.049992075055	1091.490199675676	213.082442764940	775.022665040552	834.065303400428	207.860003528205	1117.504884823778	1132.648110027929	759.390090895246	1308.313817729176	1263.669372560287	674.006212565680	
21	41.622857142857	753.535288907282	1008.012302014989	510.569614454487	909.638835107253	1430.614508662349	313.448340866241	1033.494285548100	1360.722258799233	458.683168129324	975.289699323564	1435.610286284200	640.518491367125	909.878234389582	1490.082741250161	466.748640620431	985.142083475646	935.569198661384	603.569243722215	948.888246385912	958.571644233474	331.703448363610	983.897351599589	722.737605732242	571.981009487234	883.828999466320	627.441195701718	635.970657380562	940.241552885277	564.208900915169	551.197086908167	921.745556761281	478.501055672079	554.001344281167	1025.117531171987	772.570335945157	363.499792190224	975.328196219381	645.299883089942	287.630751864379	1077.753556517605	586.762997213032	350.184214410380	1104.029455402088	523.130686418107	348.279921581994	1090.193752678895	450.446566328250	338.063707704475	1028.639922424377	318.089660300569	289.883637462843	1119.150966802092	223.457392743174	345.876980681297	883.567417532224	394.490256040848	560.337027949869	802.611480277322	298.996856857003	622.980060848081	826.572344569069	201.665635216705	554.811687121037	673.847620094000	45.517274764068	526.083917193521	846.512792444883	95.937632006197	559.028725136297	757.909624171796	37.392300583867	599.070427769542	966.251552240521	39.942982774209	585.689189448173	1042.558645641361	42.805966042479	387.575580066258	1115.613428691823	48.851019823888	306.943245546965	1183.989506427015	127.834438033506	326.194883945769	1318.008127138028	101.064344365543	300.521165293797	801.222938806690	1090.622071183718	211.146495790815	776.724790175904	832.991473809285	205.977606401391	1118.348921382084	1132.350385933812	757.826050827003	1306.326824287387	1266.181415043006	671.103102854012	
